<svg width="128" height="128" viewBox="0 0 128 128" fill="none" xmlns="http://www.w3.org/2000/svg">
<g clip-path="url(#clip0_1_2)">
<rect width="128" height="128" fill="#272927"/>
<path d="M37.9405 81C37.0756 81 36.6432 80.6829 36.6432 80.0487C36.6432 79.5298 37.018 79.1838 37.7675 79.0108L39.7567 78.6649C40.9675 78.4343 41.7458 78.1172 42.0918 77.7136C42.4954 77.31 42.6972 76.5028 42.6972 75.292V24.4387C42.6972 23.2279 42.4954 22.4207 42.0918 22.0171C41.7458 21.6135 40.9675 21.2964 39.7567 21.0658L37.7675 20.7198C37.018 20.5468 36.6432 20.2009 36.6432 19.682C36.6432 19.0478 37.0756 18.7307 37.9405 18.7307H65.7887C67.1148 18.7307 67.8355 19.3937 67.9509 20.7198L68.6427 35.0764C68.7581 36.0565 68.3833 36.5466 67.5184 36.5466C66.8266 36.5466 66.423 36.1718 66.3076 35.4223L65.8752 32.5683C65.414 29.5701 64.6068 27.235 63.4536 25.563C62.3005 23.8909 61.0032 22.709 59.5618 22.0171C58.1204 21.2676 56.7366 20.8928 55.4105 20.8928C52.8736 20.8928 51.1439 21.2964 50.2214 22.1036C49.2989 22.9108 48.8376 24.1504 48.8376 25.8224V46.2329C48.8376 47.0401 49.2412 47.4437 50.0484 47.4437H53.0754C55.6123 47.4437 57.169 46.0888 57.7456 43.3789L58.6969 39.0547C58.8699 38.3051 59.3023 37.9304 59.9942 37.9304C60.6861 37.9304 61.032 38.4205 61.032 39.4006V58.8598C61.032 59.84 60.6861 60.33 59.9942 60.33C59.3023 60.33 58.8699 59.9553 58.6969 59.2057L57.7456 54.968C57.342 52.95 56.7654 51.6239 56.0159 50.9896C55.324 50.3554 54.315 50.0383 52.9889 50.0383H50.0484C49.2412 50.0383 48.8376 50.4419 48.8376 51.2491V74.8596C48.8376 76.0703 49.0106 76.9352 49.3565 77.4541C49.7601 77.9154 50.5673 78.2325 51.7781 78.4054L55.8429 79.0108C56.4772 79.1262 56.7943 79.4433 56.7943 79.9622C56.7943 80.6541 56.3618 81 55.497 81H37.9405Z" fill="#F5F5E9"/>
<path d="M56.2064 107.115C55.4454 107.115 55.065 106.844 55.065 106.3C55.065 105.702 55.6085 105.322 56.6955 105.159L58.3261 104.914C59.5219 104.751 60.3372 104.479 60.772 104.099C61.2611 103.664 61.6144 102.876 61.8319 101.734L72.9198 53.7956C73.1915 52.6542 73.1915 51.8932 72.9198 51.5128C72.648 51.1323 71.9686 50.8334 70.8815 50.616L69.251 50.2898C68.5444 50.1268 68.1911 49.8279 68.1911 49.393C68.1911 48.7408 68.6803 48.4147 69.6586 48.4147H84.4153C85.2306 48.4147 85.5567 48.7408 85.3937 49.393C85.285 49.8822 84.9317 50.1811 84.3338 50.2898L82.051 50.616C80.8552 50.779 80.0399 51.078 79.6051 51.5128C79.1703 51.9476 78.817 52.7357 78.5452 53.8771L67.9465 99.5332C67.5117 101.49 67.7834 102.903 68.7618 103.773C69.7401 104.642 71.1533 105.077 73.0013 105.077C75.0667 105.077 77.1864 104.289 79.3605 102.713C81.5346 101.137 83.3283 98.6636 84.7414 95.2937L87.1873 89.5867C87.4591 88.8801 87.8939 88.5268 88.4917 88.5268C89.307 88.5268 89.5788 88.9888 89.307 89.9128L84.7414 105.24C84.4153 106.49 83.6 107.115 82.2956 107.115H56.2064Z" fill="#F5F5E9"/>
</g>
<defs>
<clipPath id="clip0_1_2">
<rect width="128" height="128" fill="white"/>
</clipPath>
</defs>
</svg>
